<svg width="79" height="79" viewBox="0 0 79 79" fill="none" xmlns="http://www.w3.org/2000/svg">
<g opacity="0.7" clip-path="url(#clip0_210_174)">
<path d="M46.741 77.6834C44.0919 77.6915 41.4462 77.4934 38.8279 77.0909C42.2061 76.7323 45.5022 75.8204 48.5844 74.3917C51.7952 72.8881 54.3965 70.3333 55.9577 67.15C57.2744 64.5167 55.5364 63.3449 52.0077 64.5167C49.4047 65.2064 46.7329 65.6038 44.0419 65.7017C43.3177 65.7544 42.554 65.7807 41.764 65.7939C42.5672 65.3857 43.3177 64.9775 44.0155 64.5562V64.543C54.641 58.1177 54.641 50.0334 54.641 50.0334C59.9077 47.4 58.591 43.45 58.591 43.45C55.5462 41.9159 51.8679 42.4414 49.3744 44.7667C42.5804 39.6712 33.5875 37.8674 28.0707 37.2222C24.0731 33.8647 21.7526 28.9204 21.7244 23.7C21.7244 23.5552 21.7244 23.4235 21.7375 23.2787V23.2655C23.3648 20.1812 26.2363 17.9425 29.6244 17.1167C34.891 15.8 37.5244 18.4334 37.5244 18.4334C37.5244 18.4334 39.9075 7.72886 55.9709 11.1917C59.3153 14.4969 61.2058 18.998 61.2244 23.7C61.0546 33.1813 62.8477 42.5951 66.491 51.35C70.441 60.5667 74.391 77.6834 46.741 77.6834Z" fill="#E8EDFC"/>
<path d="M66.4921 51.3503C62.8488 42.5953 61.0556 33.1815 61.2254 23.7003C61.2069 18.9982 59.3164 14.4971 55.9719 11.1919C53.3983 10.5886 50.7466 10.3878 48.1114 10.5968C49.4263 10.7115 50.7325 10.9103 52.0219 11.1919C55.3664 14.4971 57.2569 18.9982 57.2754 23.7003C57.1056 33.1815 58.8988 42.5953 62.5421 51.3503C66.3973 60.347 70.2367 76.8607 44.7065 77.6454C45.3728 77.6709 46.0513 77.6836 46.7421 77.6836C74.3921 77.6836 70.4421 60.5669 66.4921 51.3503Z" fill="#CAD9FC"/>
<path d="M55.972 11.1919C39.9086 7.72906 37.5255 18.4336 37.5255 18.4336C37.5255 18.4336 34.8921 15.8002 29.6255 17.1169C26.2374 17.9427 23.3659 20.1814 21.7386 23.2657C21.9993 16.4825 25.993 10.4007 32.114 7.46573C31.4293 6.30706 28.3088 5.26689 28.3088 5.26689C32.2588 1.31689 37.5255 3.95023 37.5255 3.95023V1.31689C43.2266 2.27806 45.5045 4.64806 46.334 5.84623C49.9802 6.69993 53.3172 8.55076 55.972 11.1919Z" fill="#E8EDFC"/>
<path d="M42.3841 5.84623C45.7178 6.63135 48.7982 8.24853 51.3375 10.5467C52.8982 10.6403 54.4491 10.856 55.9761 11.1919C53.3213 8.55076 49.9843 6.69993 46.3381 5.84623C45.5046 4.64806 43.2268 2.27806 37.5256 1.31689V2.37023C39.4578 3.01397 41.151 4.22536 42.3841 5.84623Z" fill="#CAD9FC"/>
<path d="M34.1556 16.9035C35.3986 17.0921 36.565 17.6217 37.525 18.4335C37.525 18.4335 39.0813 11.4736 48.111 10.5967C38.8904 9.81193 35.3722 14.4084 34.1556 16.9035Z" fill="#CAD9FC"/>
<path d="M48.5849 74.3918C45.5028 75.8205 42.2066 76.7324 38.8284 77.091H38.8152C35.3297 77.5189 31.8198 77.7169 28.3082 77.6835C12.3502 77.6835 8.55823 68.4668 8.55823 59.2501C8.55823 51.8241 14.4437 47.6766 17.9197 45.8728C18.1931 49.988 19.0304 54.0462 20.4082 57.9335C21.897 60.2066 24.0088 62.003 26.4912 63.108C28.2093 63.9185 30.0168 64.5239 31.8764 64.9118H31.8896C32.9158 65.1395 33.9529 65.3153 34.9969 65.4385C37.2409 65.7241 39.503 65.8429 41.7646 65.794C42.5546 65.7808 43.3182 65.7545 44.0424 65.7018C44.1741 68.4273 44.9641 72.6538 48.5849 74.3918Z" fill="#E8EDFC"/>
<path d="M44.0425 65.7017C43.3183 65.7543 42.5546 65.7807 41.7646 65.7938C41.2187 65.8044 40.6639 65.8044 40.1004 65.7938C40.2452 68.522 41.0536 72.6695 44.635 74.389C41.5528 75.8177 38.2567 76.7296 34.8785 77.0882H34.8653C32.356 77.4076 29.8314 77.5931 27.3024 77.6438C27.6421 77.6517 27.9607 77.6807 28.3083 77.6807C31.8198 77.7141 35.3298 77.5162 38.8153 77.0882H38.8285C42.2065 76.7304 45.5027 75.8194 48.585 74.3917C44.9641 72.6537 44.1741 68.4272 44.0425 65.7017Z" fill="#CAD9FC"/>
<path d="M16.4582 57.9335C17.947 60.2066 20.0587 62.003 22.5412 63.108C24.2592 63.9185 26.0667 64.5239 27.9263 64.9118H27.9395C28.9658 65.1395 30.0029 65.3153 31.0468 65.4385C33.2908 65.7241 35.5529 65.8429 37.8145 65.794C38.1463 65.794 38.4492 65.7663 38.7704 65.7558C37.5235 65.7031 36.2582 65.6057 34.9968 65.4385C33.9529 65.3153 32.9158 65.1395 31.8895 64.9118H31.8763C30.0167 64.5239 28.2092 63.9185 26.4912 63.108C24.0087 62.003 21.897 60.2066 20.4082 57.9335C19.0304 54.0462 18.193 49.988 17.9197 45.8728C16.6101 46.5492 15.3708 47.3537 14.2198 48.2744C14.5923 51.5694 15.3434 54.8105 16.4582 57.9335Z" fill="#CAD9FC"/>
<path d="M54.641 50.0338C54.641 50.0338 54.641 58.1181 44.0155 64.5435V64.5566C43.3177 64.978 42.5672 65.3861 41.764 65.7943C39.5025 65.8432 37.2404 65.7244 34.9964 65.4388C33.9524 65.3156 32.9153 65.1398 31.889 64.9121H31.8759C30.0162 64.5242 28.2088 63.9188 26.4907 63.1083C24.0083 62.0033 21.8965 60.2069 20.4077 57.9338C19.0299 54.0465 18.1926 49.9883 17.9192 45.8731C17.827 44.6881 17.7744 43.4373 17.7744 42.1338C17.7744 42.1338 13.8244 39.5004 16.4577 32.9171C19.1554 33.112 21.5996 34.5785 23.041 36.8671C24.7227 36.8974 26.4015 37.016 28.0707 37.2226C33.5875 37.8678 42.5804 39.6716 49.3744 44.7671C51.8679 42.4418 55.5462 41.9163 58.591 43.4504C58.591 43.4504 59.9077 47.4004 54.641 50.0338Z" fill="white"/>
<path d="M58.5913 43.4501C56.8582 42.5356 54.8437 42.309 52.9507 42.8155C53.5346 42.9682 54.1012 43.1809 54.6413 43.4501C54.6413 43.4501 55.958 47.4001 50.6913 50.0334C50.6913 50.0334 50.6913 58.1178 40.0658 64.5431V64.5563C39.4075 64.9513 38.7123 65.3318 37.9684 65.7136C39.2613 65.79 40.5385 65.8163 41.7643 65.7939C42.5675 65.3858 43.318 64.9776 44.0158 64.5563V64.5431C54.6413 58.1178 54.6413 50.0334 54.6413 50.0334C59.908 47.4001 58.5913 43.4501 58.5913 43.4501Z" fill="#E8EDFC"/>
<path d="M55.9572 67.1503C54.396 70.3335 51.7947 72.8883 48.5839 74.3919C44.963 72.6539 44.173 68.4274 44.0414 65.7019C46.7324 65.604 49.4042 65.2066 52.0072 64.5169C55.5359 63.3451 57.2739 64.5169 55.9572 67.1503Z" fill="#E8EDFC"/>
<path d="M28.3082 77.6837C29.3734 77.6837 30.3227 77.6718 31.1891 77.6521C19.2232 77.3189 12.5082 71.4282 12.5082 59.2503C12.5082 53.8586 15.6616 49.7071 20.0685 46.9079C21.1529 46.2263 21.7936 45.0201 21.7512 43.74C21.7512 43.6623 21.7512 43.5846 21.7512 43.5056C21.7117 42.701 21.4097 41.9314 20.8914 41.3147C19.9869 40.1929 18.8282 37.8663 20.029 34.0111C18.9423 33.3686 17.7184 32.9935 16.4582 32.917C13.8249 39.5003 17.7749 42.1337 17.7749 42.1337C17.7749 43.4372 17.8276 44.688 17.9197 45.873C12.5951 48.6367 8.55823 53.1489 8.55823 59.2503C8.55823 71.7916 15.6682 77.6837 28.3082 77.6837Z" fill="white"/>
<path d="M27.7139 36.8842C28.55 36.9131 30.0615 36.9934 32.0207 37.2225C28.0231 33.8651 25.7026 28.9207 25.6744 23.7004C25.7746 16.7556 29.799 10.4665 36.0629 7.46587C35.3782 6.3072 32.2577 5.26703 32.2577 5.26703C33.1885 4.31813 34.3645 3.64626 35.6547 3.32626C33.0348 2.62536 30.2397 3.36372 28.3077 5.26703C28.3077 5.26703 31.4282 6.3072 32.1129 7.46587C25.849 10.4665 21.8246 16.7556 21.7244 23.7004C21.7537 28.7471 23.9322 33.5422 27.7139 36.8842Z" fill="white"/>
<path d="M46.7418 77.6836C47.4001 77.6836 48.0295 77.6651 48.6562 77.6454C46.6878 77.5775 44.7251 77.3924 42.7786 77.0911C42.4955 77.0911 41.8938 77.2082 40.6456 77.3386C42.6693 77.5718 44.7048 77.687 46.7418 77.6836Z" fill="white"/>
<path d="M11.3831 53.5096L9.08423 52.2166C11.0479 48.9752 13.9028 46.3671 17.3081 44.7037L18.5221 47.0421C15.573 48.471 13.0954 50.7155 11.3831 53.5096Z" fill="white"/>
<path d="M13.5798 50.1231C12.8526 50.1264 12.2605 49.5395 12.2572 48.8123C12.2539 48.0852 12.8408 47.493 13.568 47.4897H13.5798C14.307 47.4897 14.8965 48.0792 14.8965 48.8064C14.8965 49.5336 14.307 50.1231 13.5798 50.1231Z" fill="#428DFF"/>
<path d="M28.3081 79.0001C31.8185 79.0322 35.3273 78.8373 38.8125 78.4168C41.437 78.8104 44.0876 79.0053 46.7415 79.0001C57.6342 79.0001 64.9036 76.3523 68.3453 71.1304C71.5396 66.2877 71.317 59.2685 67.7015 50.8313C64.1334 42.2388 62.3768 33.0025 62.5415 23.7001C62.5189 18.6529 60.4912 13.8216 56.9048 10.2701C54.1962 7.56792 50.8132 5.64068 47.1075 4.68874C45.9159 3.18906 43.2668 0.949405 37.7434 0.018522C37.3613 -0.0457834 36.9704 0.0613986 36.6746 0.311534C36.3788 0.561669 36.2082 0.929373 36.2081 1.31676V2.10676C33.0765 1.18757 29.6929 2.04522 27.3772 4.34509C27.0544 4.66778 26.9218 5.13462 27.0267 5.57884C27.1315 6.02306 27.459 6.38127 27.8921 6.52549C28.5269 6.73945 29.1455 6.99862 29.7433 7.30101C24.1696 10.6912 20.67 16.6529 20.4266 23.1721V23.2564V23.288C20.4081 23.4196 20.4081 23.5553 20.4081 23.7001C20.4327 28.0452 21.95 32.2498 24.7057 35.6093C24.3252 35.5883 23.9842 35.5725 23.7288 35.5646C22.0163 33.2265 19.351 31.7732 16.4581 31.6001C15.9197 31.5997 15.4352 31.9272 15.2349 32.427C12.8649 38.3678 15.2665 41.5962 16.4621 42.7444C16.4752 43.824 16.524 44.9076 16.6069 45.9741C16.8869 50.2222 17.7545 54.4109 19.1849 58.4206C19.2142 58.4932 19.2494 58.5632 19.2903 58.6299C20.9104 61.1158 23.2131 63.0816 25.9223 64.2916C27.7333 65.1481 29.6389 65.7881 31.5998 66.1981L31.6748 66.2126C32.7993 66.4562 33.8342 66.63 34.8348 66.7459C36.8203 67.0001 38.8201 67.125 40.8217 67.1198C41.1412 67.1198 41.4634 67.1167 41.7882 67.1106C42.1437 67.1106 42.4899 67.0948 42.8323 67.0816C43.0244 69.7063 44.1175 72.1841 45.9264 74.0955C43.5892 74.9171 41.1694 75.4813 38.7098 75.7782L38.644 75.7861C35.2152 76.2067 31.7624 76.4007 28.3081 76.3668C15.9038 76.3668 9.87479 70.7683 9.87479 59.2501C9.87557 57.2386 10.3953 55.2613 11.3837 53.5094C11.6944 52.8931 11.5034 52.1421 10.936 51.749C10.6356 51.5437 10.2616 51.4774 9.90888 51.5668C9.5562 51.6562 9.25894 51.8928 9.09269 52.2165C7.88235 54.3633 7.24483 56.7855 7.24146 59.2501C7.24146 72.1705 14.5253 79.0001 28.3081 79.0001ZM32.7045 8.64137C33.0296 8.47757 33.2723 8.18647 33.3751 7.83725C33.4779 7.48802 33.4315 7.11183 33.2469 6.79804C32.6637 6.00024 31.8828 5.36812 30.981 4.96392C32.9035 4.19337 35.0592 4.25295 36.9362 5.12851C37.3445 5.33251 37.8293 5.31055 38.2174 5.07048C38.6055 4.83041 38.8417 4.40647 38.8415 3.95009V2.92836C42.8415 3.89479 44.5611 5.59856 45.251 6.59659C45.4373 6.86072 45.7135 7.04795 46.0278 7.12326C47.8732 7.56302 49.6434 8.2729 51.2813 9.22992C41.933 8.75987 38.216 13.7145 36.8928 16.4347C34.5227 15.3106 31.822 15.0974 29.3048 15.8356C27.3154 16.3215 25.4646 17.2591 23.896 18.5756C25.4113 14.2346 28.576 10.6654 32.7045 8.64137ZM23.0415 23.6593C24.51 21.0207 27.0107 19.1125 29.9434 18.3926C34.3503 17.2906 36.5149 19.2879 36.5939 19.363C36.9336 19.7033 37.4319 19.8314 37.8936 19.697C38.3553 19.5627 38.7071 19.1873 38.8112 18.7178C38.8941 18.3373 41.0495 9.51564 55.2998 12.4084C58.2334 15.4379 59.8843 19.483 59.9081 23.7001C59.7417 33.3594 61.571 42.9491 65.2814 51.8689C67.5474 57.1579 69.5369 64.5405 66.1478 69.682C63.288 74.0191 56.972 76.2654 47.3879 76.3575C48.0081 76.1126 48.6045 75.8546 49.1654 75.5741C52.6372 73.9439 55.4508 71.1806 57.1431 67.7386C58.2123 65.6004 57.5592 64.343 57.0747 63.7886C56.4874 63.1119 54.9996 62.1441 51.5986 63.2725C50.0996 63.6919 48.5662 63.9774 47.0166 64.1257C54.2425 58.859 55.6408 52.992 55.9028 50.859C60.2294 48.3652 60.4006 44.6983 59.8462 43.0393C59.7365 42.708 59.4997 42.4338 59.1879 42.2769C56.0086 40.6596 52.1879 40.9798 49.3221 43.1038C42.7757 38.5468 34.6255 36.7153 28.6768 35.9806C25.1341 32.8773 23.084 28.4096 23.0415 23.7001V23.6593ZM38.7309 64.4246C40.7216 62.7665 42.4588 60.8258 43.8869 58.6642C44.148 58.2728 44.1804 57.7719 43.972 57.3501C43.7636 56.9283 43.346 56.6498 42.8766 56.6194C42.4071 56.5889 41.9571 56.8113 41.696 57.2027C39.9007 59.9748 37.5185 62.3189 34.7177 64.0691C34.1374 63.9927 33.5327 63.8922 32.9033 63.7676C32.473 62.3004 32.2557 60.779 32.2581 59.2501C32.2581 58.5229 31.6686 57.9334 30.9415 57.9334C30.2143 57.9334 29.6248 58.5229 29.6248 59.2501C29.6247 60.5228 29.7526 61.7923 30.0066 63.0395C29.1758 62.784 28.3611 62.4789 27.5668 62.1257C26.36 58.2064 25.7228 54.134 25.6748 50.0334C25.6748 49.3062 25.0853 48.7168 24.3581 48.7168C23.6309 48.7168 23.0415 49.3062 23.0415 50.0334C23.0695 53.473 23.5013 56.8974 24.3278 60.2363C23.2543 59.4368 22.328 58.4566 21.5905 57.3396C20.3013 53.6021 19.5085 49.7114 19.2323 45.7674C19.1389 44.5706 19.0915 43.3461 19.0915 42.1334C19.0915 41.6933 18.8717 41.2822 18.5055 41.038C18.4766 41.0182 15.8156 39.1736 17.3403 34.3532C19.2433 34.7864 20.899 35.9521 21.9486 37.5975C22.1924 37.9629 22.6023 38.1826 23.0415 38.1834C24.6702 38.2149 26.2963 38.3305 27.9131 38.5297C33.8289 39.2223 42.2161 41.0472 48.5848 45.8201C49.1071 46.2052 49.8315 46.1556 50.2965 45.7029C52.2211 43.9318 54.988 43.4149 57.4223 44.3718C57.4815 45.2934 57.1958 47.2895 54.0529 48.8603C53.6082 49.0825 53.3265 49.5363 53.3248 50.0334C53.3248 50.1072 53.2102 57.4449 43.3339 63.416C43.2882 63.4445 43.2442 63.4757 43.2023 63.5095C42.6756 63.8216 42.0989 64.1415 41.4392 64.4825C40.511 64.4917 39.6157 64.4641 38.7309 64.4246ZM45.4748 66.9263C47.8246 66.7821 50.153 66.3946 52.4229 65.7702C54.2122 65.1764 54.9851 65.4226 55.0681 65.4977C55.0904 65.8755 54.9892 66.2503 54.7797 66.5655C53.4502 69.2713 51.2951 71.4845 48.6256 72.8855C46.7413 71.4648 45.5867 69.2795 45.4748 66.9223V66.9263Z" fill="#428DFF"/>
<path d="M30.6367 29.9887C31.1674 29.9834 31.6925 29.8794 32.1851 29.6819C33.1824 29.3316 33.9911 28.5856 34.4205 27.6197C34.8499 26.6537 34.8619 25.5535 34.4537 24.5785C34.1966 23.8982 33.4368 23.5551 32.7565 23.8122C32.0762 24.0692 31.7331 24.8291 31.9902 25.5094C32.1685 25.9502 32.0951 26.453 31.7983 26.8246C31.5016 27.1962 31.0275 27.3789 30.5581 27.3025C30.0887 27.2261 29.697 26.9026 29.5333 26.456C29.269 25.7783 28.5053 25.4432 27.8276 25.7075C27.1498 25.9718 26.8147 26.7355 27.079 27.4133C27.6311 28.9151 29.0375 29.9333 30.6367 29.9887Z" fill="#428DFF"/>
<path d="M47.8376 23.3713C48.3686 23.366 48.894 23.2625 49.3873 23.0658C50.7798 22.6066 51.7678 21.3658 51.9035 19.9058C51.9641 19.2468 51.8796 18.5826 51.6559 17.9598C51.3949 17.281 50.6329 16.9423 49.9541 17.2033C49.2753 17.4644 48.9366 18.2263 49.1977 18.9051C49.2727 19.1469 49.3018 19.4006 49.2833 19.653C49.2504 19.9769 49.1279 20.3429 48.4419 20.6063C48.1167 20.7695 47.7353 20.7777 47.4034 20.6285C47.0715 20.4794 46.8243 20.1889 46.7303 19.8373C46.4656 19.16 45.7019 18.8254 45.0245 19.0901C44.3472 19.3548 44.0126 20.1185 44.2773 20.7959C44.8297 22.2986 46.2374 23.3169 47.8376 23.3713Z" fill="#428DFF"/>
<path d="M39.5572 28.1638C39.7188 28.1634 39.879 28.1335 40.0299 28.0756L42.4881 27.1302C42.9346 26.9665 43.2582 26.5748 43.3346 26.1054C43.4109 25.636 43.2283 25.1619 42.8567 24.8651C42.4851 24.5684 41.9823 24.495 41.5414 24.6733L39.0845 25.6187C38.493 25.8468 38.1481 26.4642 38.2638 27.0875C38.3796 27.7109 38.9232 28.1632 39.5572 28.1638Z" fill="#428DFF"/>
<path d="M40.5697 34.347C41.6153 34.3372 42.65 34.1341 43.6217 33.7479C46.1163 32.9712 47.9702 30.869 48.4289 28.2969C48.4971 27.5828 47.9771 26.947 47.2636 26.8723C46.5486 26.8009 45.9066 27.3115 45.8153 28.0243C45.4412 29.6015 44.241 30.8517 42.6803 31.2897C41.2288 32.0063 39.5035 31.8834 38.1681 30.9684C37.626 30.5004 36.8093 30.5515 36.3298 31.0833C35.8502 31.6152 35.8837 32.4328 36.4051 32.9237C37.5835 33.8716 39.0576 34.3753 40.5697 34.347Z" fill="#428DFF"/>
</g>
<defs>
<clipPath id="clip0_210_174">
<rect width="79" height="79" fill="white"/>
</clipPath>
</defs>
</svg>
